<?xml version="1.0" standalone="no"?><!DOCTYPE svg PUBLIC "-//W3C//DTD SVG 1.1//EN" "http://www.w3.org/Graphics/SVG/1.1/DTD/svg11.dtd"><svg t="1531300120817" class="icon" style="" viewBox="0 0 1024 1024" version="1.1" xmlns="http://www.w3.org/2000/svg" p-id="4156" xmlns:xlink="http://www.w3.org/1999/xlink" width="200" height="200"><defs><style type="text/css"></style></defs><path d="M527.63663 877.280404c211.094766 0 382.205888-171.123402 382.205888-382.204865 0-211.080439-171.110099-382.203842-382.204865-382.203842-211.095789 0-382.204865 171.123402-382.204865 382.203842S316.541865 877.280404 527.63663 877.280404zM527.637654 160.64577c184.687326 0 334.428745 149.730163 334.428745 334.428745-0.001023 184.698582-149.742443 334.429769-334.429769 334.429769-184.686303-0.001023-334.428745-149.73221-334.428745-334.429769C193.206862 310.37798 342.949304 160.64577 527.637654 160.64577zM551.525714 423.413406l-47.777143 0 0 238.877529 47.77612 0L551.525714 423.413406zM551.525714 327.862189l-47.777143 0 0 47.77612 47.777143 0L551.525714 327.862189z" p-id="4157" fill="#ff2626"></path></svg>